<?xml version="1.0" standalone="no"?>
<!DOCTYPE svg PUBLIC "-//W3C//DTD SVG 20010904//EN"
 "http://www.w3.org/TR/2001/REC-SVG-20010904/DTD/svg10.dtd">
<svg version="1.0" xmlns="http://www.w3.org/2000/svg"
 width="2100.000000pt" height="2100.000000pt" viewBox="0 0 2100.000000 2100.000000"
 preserveAspectRatio="xMidYMid meet">

<g transform="translate(0.000000,2100.000000) scale(0.100000,-0.100000)"
fill="#000000" stroke="none">
<path d="M14710 16833 c-197 -20 -302 -68 -430 -193 -115 -113 -166 -216 -190
-381 -30 -210 69 -447 245 -586 54 -42 149 -94 194 -105 20 -5 59 -15 86 -21
l50 -12 3 -100 c4 -128 -6 -245 -21 -245 -7 0 -52 43 -102 95 -49 52 -93 95
-97 95 -15 0 -7 -35 27 -135 20 -55 56 -161 81 -235 25 -74 49 -144 53 -155
36 -89 70 -205 65 -219 -3 -8 -28 -16 -61 -20 -128 -15 -230 -65 -349 -172
-72 -66 -142 -183 -176 -294 -18 -60 -18 -324 0 -342 6 -6 12 -21 12 -33 0
-24 51 -126 87 -173 106 -139 254 -234 406 -260 l42 -8 3 -187 c3 -230 4 -229
-127 -91 -50 53 -95 94 -98 90 -4 -3 10 -55 30 -114 90 -263 196 -571 211
-615 10 -27 16 -50 14 -51 -2 -1 -25 -7 -53 -13 -90 -20 -122 -30 -171 -54
-145 -70 -286 -229 -329 -371 -9 -29 -21 -63 -26 -76 -5 -13 -9 -70 -9 -128 0
-118 18 -202 62 -287 5 -10 19 -37 31 -60 37 -72 172 -197 258 -239 103 -51
146 -61 279 -65 126 -5 185 7 295 56 50 23 147 92 190 135 26 26 95 125 114
164 31 61 61 161 61 204 0 20 4 39 9 43 6 3 50 -8 98 -24 90 -30 347 -120 418
-147 118 -44 226 -76 233 -70 4 5 -40 53 -97 107 -67 64 -101 103 -94 110 6 6
150 8 379 7 l369 -3 7 -50 c28 -217 216 -423 457 -500 75 -25 277 -25 352 0
138 44 242 114 327 219 29 35 52 66 52 70 0 4 10 23 23 44 54 88 84 258 66
373 -39 257 -198 449 -444 537 -194 70 -445 22 -605 -114 -54 -46 -149 -152
-150 -167 0 -4 -10 -24 -23 -45 -26 -43 -57 -137 -57 -175 0 -57 1 -57 -389
-57 -197 0 -361 3 -364 7 -4 4 36 50 88 103 130 133 127 145 -20 80 -11 -4
-54 -21 -95 -35 -120 -44 -284 -106 -302 -116 -10 -5 -23 -9 -29 -9 -6 0 -25
-6 -42 -14 -73 -31 -113 -45 -137 -48 -23 -3 -25 1 -30 47 -17 148 -122 328
-248 423 -102 77 -244 132 -341 132 -73 0 -74 6 -26 125 26 64 45 113 70 185
15 41 31 84 36 95 5 11 29 74 54 140 25 66 49 129 54 140 55 130 46 128 -111
-28 -38 -37 -73 -65 -78 -62 -14 8 -13 341 0 366 7 12 21 19 39 19 37 0 141
33 194 62 140 75 267 219 312 353 7 22 20 78 29 125 14 76 14 96 1 185 -16
110 -17 111 -65 207 -93 186 -279 321 -472 344 -57 7 -78 24 -60 48 5 6 12 20
15 31 6 24 53 151 66 180 8 18 28 70 51 130 13 35 42 109 55 140 7 17 18 46
25 65 7 19 18 49 25 65 31 77 37 96 31 102 -3 3 -52 -39 -108 -95 -93 -92
-104 -100 -116 -84 -8 10 -11 30 -8 52 3 19 6 92 6 162 l0 126 43 7 c195 31
388 173 469 345 57 122 62 146 62 295 0 113 -4 151 -20 195 -68 192 -208 338
-391 411 -60 24 -200 47 -253 42z m128 -2399 c84 -21 140 -54 206 -120 165
-166 192 -398 68 -590 -169 -261 -532 -293 -745 -66 -97 104 -139 246 -117
395 10 73 17 93 42 137 4 8 12 24 17 35 18 41 130 144 188 173 122 61 209 70
341 36z m2607 -2245 c73 -19 149 -63 211 -124 191 -188 192 -482 1 -669 -136
-134 -315 -173 -497 -108 -136 48 -263 189 -295 327 -39 166 9 330 131 450 86
85 162 120 294 138 34 5 107 -2 155 -14z"/>
<path d="M5017 16769 c-53 -15 -70 -46 -71 -127 -1 -137 24 -1864 34 -2317 6
-258 10 -977 10 -1598 l0 -1127 -27 -11 c-129 -49 -210 -117 -258 -215 -27
-54 -29 -68 -30 -169 0 -105 2 -114 33 -177 48 -97 118 -156 245 -207 15 -6
66 -11 112 -11 83 0 100 4 183 42 97 45 195 186 208 300 7 68 -9 166 -38 226
-33 67 -122 153 -191 185 l-57 26 2 968 3 968 55 2 c76 3 240 22 330 38 41 8
89 16 105 18 82 13 252 64 380 114 331 130 590 310 800 556 58 68 215 321 215
346 0 9 4 21 8 27 16 18 55 119 69 179 28 119 33 146 44 254 10 93 9 128 -6
233 -23 169 -63 304 -124 428 -62 126 -63 127 -125 215 -47 67 -153 193 -206
245 -116 116 -299 245 -460 325 -244 122 -443 189 -680 231 -174 31 -503 50
-563 33z m353 -184 c167 -18 271 -35 292 -46 9 -5 28 -9 42 -9 14 0 35 -4 48
-9 13 -5 48 -17 78 -26 30 -8 73 -23 95 -32 22 -8 49 -19 60 -23 11 -5 59 -27
106 -49 47 -23 89 -41 92 -41 11 0 218 -129 262 -164 81 -63 130 -109 240
-227 63 -67 168 -218 180 -257 6 -21 5 -21 -22 -12 -15 6 -37 15 -48 20 -91
41 -277 53 -376 24 -130 -38 -233 -105 -315 -206 -94 -114 -134 -228 -134
-384 0 -172 54 -298 183 -426 43 -43 83 -78 88 -78 5 0 26 -10 47 -23 88 -54
236 -82 347 -66 72 10 173 37 189 51 10 8 46 11 46 4 0 -12 -111 -179 -150
-227 -105 -127 -232 -239 -373 -333 -99 -64 -283 -160 -367 -191 -182 -65
-328 -103 -480 -126 -229 -33 -311 -37 -328 -16 -9 11 -22 736 -37 2047 -3
250 -8 542 -12 648 l-6 192 64 -1 c35 0 120 -6 189 -14z m1307 -929 c84 -18
181 -68 232 -119 42 -42 74 -107 62 -124 -3 -4 -42 -8 -86 -8 -69 -1 -87 -4
-127 -28 -60 -35 -101 -88 -124 -160 -15 -50 -16 -66 -6 -115 15 -71 64 -144
117 -174 49 -28 139 -48 174 -39 39 11 64 3 56 -17 -4 -10 -11 -31 -16 -49
-10 -35 -70 -91 -130 -122 -21 -11 -46 -24 -56 -29 -46 -25 -116 -37 -205 -36
-156 1 -255 41 -363 149 -75 75 -113 141 -139 241 -94 364 242 709 611 630z
m-1472 -4175 c82 -47 135 -116 161 -210 15 -51 15 -70 6 -111 -31 -135 -110
-224 -228 -258 -137 -40 -291 31 -359 164 -26 51 -30 70 -30 139 0 97 24 153
96 223 69 67 114 83 224 79 71 -3 98 -8 130 -26z"/>
<path d="M10115 16691 c-174 -52 -326 -175 -406 -331 -45 -87 -59 -142 -65
-270 -6 -119 -23 -194 -64 -295 -24 -57 -29 -70 -70 -185 -23 -63 -48 -131
-55 -150 -17 -44 -100 -267 -155 -420 -23 -63 -45 -124 -50 -135 -20 -50 -41
-106 -65 -175 -24 -69 -45 -125 -65 -175 -5 -11 -27 -72 -50 -135 -23 -63 -48
-133 -57 -155 -8 -22 -19 -49 -23 -60 -4 -11 -15 -38 -23 -60 -9 -22 -27 -74
-42 -115 -15 -41 -31 -88 -37 -105 -6 -16 -17 -43 -24 -60 -6 -16 -24 -64 -39
-105 -14 -41 -33 -91 -40 -110 -7 -19 -37 -98 -65 -175 -28 -77 -58 -156 -65
-175 -7 -19 -26 -69 -40 -110 -15 -41 -33 -89 -41 -107 -8 -17 -14 -36 -14
-42 0 -6 -4 -19 -9 -29 -11 -21 -31 -73 -66 -172 -15 -41 -33 -89 -41 -107 -8
-17 -14 -38 -14 -46 0 -9 -4 -19 -10 -22 -5 -3 -10 -13 -10 -22 0 -8 -27 -44
-59 -79 -58 -61 -121 -145 -121 -160 0 -4 -6 -15 -13 -23 -14 -17 -65 -171
-69 -210 -2 -13 -10 -27 -18 -31 -191 -92 -213 -105 -273 -163 -82 -80 -133
-152 -184 -257 -73 -150 -91 -253 -74 -406 20 -180 85 -296 215 -383 l39 -25
26 31 c14 17 35 49 46 70 11 21 35 62 53 92 17 30 32 64 32 75 0 12 -15 36
-34 54 -48 47 -63 105 -48 201 6 42 23 101 37 131 29 61 27 59 74 123 35 47
137 127 163 127 7 0 26 -24 42 -52 61 -108 273 -278 346 -278 14 0 31 -5 38
-12 8 -8 58 -13 151 -14 77 -1 144 -5 151 -9 18 -11 1 -160 -26 -230 -34 -83
-89 -161 -141 -196 -33 -23 -57 -31 -104 -34 -34 -2 -62 -5 -64 -7 -6 -6 -48
-175 -58 -231 -14 -81 -4 -90 113 -95 92 -5 122 2 220 45 171 77 322 271 373
483 38 157 42 204 24 314 -9 57 -17 110 -17 118 0 8 22 42 49 76 96 120 141
247 141 403 0 106 3 118 67 284 8 22 19 49 23 60 4 11 15 38 23 60 9 22 27 72
40 110 25 71 147 401 172 465 7 19 25 69 40 110 15 41 30 84 35 95 21 53 41
107 65 175 15 41 33 93 42 115 8 22 19 49 23 60 4 11 15 38 23 60 9 22 27 74
42 115 24 69 45 125 65 175 5 11 27 72 50 135 39 109 62 169 81 215 4 11 23
62 41 113 40 111 51 115 86 32 6 -14 22 -50 35 -80 14 -31 41 -95 61 -143 20
-48 45 -108 57 -135 51 -115 78 -177 109 -252 13 -30 27 -59 32 -64 4 -6 8
-16 8 -22 0 -7 16 -47 36 -90 19 -42 51 -116 71 -163 19 -47 51 -119 69 -159
19 -41 34 -79 34 -86 0 -6 4 -16 9 -21 4 -6 30 -62 56 -125 26 -63 60 -142 75
-175 15 -33 43 -98 63 -145 19 -47 47 -112 62 -145 14 -33 30 -69 35 -80 4
-11 17 -41 29 -67 12 -27 37 -87 57 -135 20 -48 47 -112 61 -143 13 -30 28
-64 33 -75 4 -11 15 -36 24 -56 8 -19 31 -73 51 -119 20 -46 43 -100 51 -119
9 -20 20 -45 24 -56 5 -11 19 -42 31 -70 59 -136 59 -134 59 -237 0 -114 12
-163 72 -283 75 -154 213 -269 394 -329 52 -17 251 -24 311 -10 82 19 205 71
240 103 10 9 36 31 58 50 212 182 276 499 153 759 -31 65 -112 174 -148 199
-29 20 -61 74 -100 168 -30 74 -55 131 -100 230 -9 22 -34 79 -54 128 -20 48
-45 108 -57 135 -12 26 -25 56 -29 67 -5 11 -20 45 -33 75 -14 31 -40 94 -60
140 -19 47 -48 114 -65 150 -16 36 -51 117 -77 180 -26 63 -52 119 -56 125 -5
5 -9 15 -9 21 0 7 -15 45 -34 86 -18 40 -50 112 -69 159 -20 47 -52 121 -71
163 -20 43 -36 83 -36 90 0 6 -4 16 -8 22 -5 5 -19 34 -32 64 -12 30 -33 78
-46 107 -13 28 -24 54 -24 57 0 5 -24 61 -71 165 -11 24 -29 64 -39 90 -10 25
-30 73 -45 106 -44 99 -51 116 -95 220 -23 55 -51 120 -62 145 -11 25 -24 54
-28 65 -5 11 -21 47 -36 80 -14 33 -34 80 -44 105 -10 25 -30 72 -44 105 -32
70 -46 102 -57 130 -4 11 -19 46 -33 78 -14 31 -38 85 -52 120 -27 64 -56 130
-79 182 -75 167 -86 201 -95 310 -15 176 -26 220 -76 310 -86 154 -206 253
-379 309 -67 22 -97 26 -190 25 -74 0 -130 -6 -170 -18z m258 -161 c255 -41
434 -312 376 -568 -17 -76 -70 -169 -131 -231 -52 -53 -108 -88 -198 -123 -47
-18 -224 -17 -270 1 -121 47 -188 95 -247 177 -145 202 -120 455 61 627 109
103 250 143 409 117z m570 -790 c19 -47 47 -112 62 -145 14 -33 30 -69 35 -80
4 -11 17 -41 29 -67 12 -27 37 -87 57 -135 20 -48 47 -112 61 -143 47 -105 51
-115 77 -177 14 -35 38 -89 52 -120 14 -32 29 -67 34 -78 4 -11 17 -41 29 -67
12 -27 37 -87 57 -135 34 -82 59 -139 104 -238 10 -22 39 -91 64 -154 26 -62
51 -121 55 -130 5 -9 13 -27 19 -41 6 -14 22 -51 36 -83 14 -31 38 -85 52
-120 26 -62 30 -72 77 -177 14 -31 41 -95 61 -143 20 -48 45 -108 57 -135 12
-26 25 -56 29 -67 5 -11 21 -47 35 -80 15 -33 43 -98 62 -145 20 -47 51 -118
69 -158 19 -41 34 -79 34 -86 0 -6 4 -16 8 -22 5 -5 24 -45 42 -89 18 -44 37
-84 42 -89 4 -6 8 -16 8 -22 0 -7 16 -47 36 -90 19 -42 51 -115 71 -163 19
-47 46 -108 58 -136 12 -27 26 -61 30 -74 8 -27 12 -27 -140 4 -182 36 -380
-16 -525 -139 -62 -53 -147 -161 -170 -215 -17 -43 -37 -39 -59 12 -10 23 -28
65 -40 92 -30 68 -42 96 -52 120 -4 11 -20 47 -35 80 -14 33 -34 80 -44 105
-10 25 -30 72 -44 105 -15 33 -31 69 -36 80 -4 11 -15 36 -24 56 -8 19 -31 73
-51 119 -20 46 -43 100 -51 119 -9 20 -20 45 -24 56 -5 11 -20 45 -33 75 -14
31 -41 95 -61 143 -20 48 -45 108 -57 135 -12 26 -25 56 -29 67 -5 11 -23 51
-39 88 -17 38 -31 70 -31 72 0 3 -12 30 -26 62 -14 32 -30 67 -34 78 -5 11
-21 47 -35 80 -15 33 -43 98 -62 145 -20 47 -44 105 -55 130 -74 167 -86 194
-124 287 -20 49 -50 117 -66 153 -17 36 -46 103 -65 150 -45 108 -81 190 -93
212 -22 39 -11 86 55 258 7 19 26 69 40 110 15 41 33 89 41 107 8 17 14 36 14
42 0 6 4 19 9 29 6 9 29 69 51 132 23 63 48 129 56 147 8 17 14 36 14 42 0 20
24 55 82 118 58 64 118 145 118 160 0 9 42 65 46 60 1 -1 18 -40 37 -87z
m-1222 10 c18 -34 66 -96 107 -140 68 -72 79 -90 128 -207 30 -70 60 -141 67
-158 8 -16 19 -41 25 -55 6 -14 23 -52 38 -85 14 -33 34 -80 44 -105 10 -25
30 -72 45 -105 96 -215 99 -224 88 -248 -6 -12 -30 -74 -53 -137 -23 -63 -48
-131 -55 -150 -7 -19 -26 -69 -40 -110 -15 -41 -33 -88 -40 -105 -7 -16 -20
-50 -28 -75 -8 -25 -20 -56 -25 -70 -6 -14 -23 -59 -37 -100 -15 -41 -33 -88
-39 -105 -7 -16 -18 -43 -24 -60 -6 -16 -22 -64 -37 -105 -15 -41 -33 -93 -42
-115 -8 -22 -19 -49 -23 -60 -4 -11 -15 -38 -23 -60 -9 -22 -27 -74 -42 -115
-15 -41 -33 -93 -42 -115 -8 -22 -19 -49 -23 -60 -4 -11 -27 -72 -50 -135 -23
-63 -48 -131 -55 -150 -7 -19 -36 -96 -63 -170 -28 -74 -63 -171 -80 -214 -16
-44 -33 -81 -38 -83 -5 -2 -23 22 -39 54 -46 88 -183 220 -275 265 -148 72
-318 88 -470 44 -106 -30 -108 -25 -50 119 21 54 42 110 80 215 23 63 45 124
50 135 20 50 41 106 65 175 34 97 55 151 66 172 5 10 9 23 9 29 0 6 6 25 14
42 8 18 26 66 41 107 14 41 33 91 40 110 19 49 105 282 155 420 23 63 47 129
54 145 7 17 18 44 24 60 35 100 95 263 102 280 20 50 41 106 65 175 24 69 45
125 65 175 5 11 27 72 50 135 23 63 48 133 57 155 8 22 19 49 23 60 4 11 27
72 50 135 23 63 48 130 56 148 8 18 14 37 14 43 0 10 30 59 36 59 1 0 17 -27
35 -60z m834 -289 c5 -8 -4 -39 -35 -116 -4 -11 -14 -38 -23 -60 -8 -22 -22
-58 -30 -80 -9 -22 -27 -74 -42 -115 -14 -41 -30 -83 -36 -92 -5 -10 -9 -23
-9 -29 0 -6 -6 -25 -14 -42 -7 -18 -21 -51 -31 -74 -10 -24 -21 -43 -25 -43
-4 0 -18 24 -30 53 -25 58 -61 139 -91 206 -11 24 -29 64 -39 90 -10 25 -30
73 -44 106 -15 33 -31 69 -36 80 -4 11 -15 36 -24 57 -29 66 -30 66 87 34 104
-29 277 -18 377 22 32 14 38 14 45 3z m-1615 -2911 c67 -20 176 -96 221 -153
22 -28 54 -80 71 -116 29 -61 32 -74 32 -176 1 -130 -11 -174 -71 -267 -84
-128 -199 -199 -343 -212 -169 -14 -309 41 -417 164 -36 41 -83 126 -83 149 0
10 -5 22 -11 28 -12 12 -7 229 6 278 13 46 71 136 122 189 48 48 109 85 193
117 54 20 210 20 280 -1z m-795 -509 c5 -9 25 -98 28 -130 1 -8 -24 -30 -56
-49 -154 -90 -263 -276 -275 -469 -5 -88 6 -132 52 -200 l24 -35 -35 -58 c-46
-78 -59 -81 -106 -28 -72 82 -99 168 -99 317 -1 122 10 173 58 280 65 142 188
278 309 343 73 39 90 44 100 29z m4189 -56 c83 -21 158 -60 216 -112 51 -46
123 -150 133 -193 3 -14 10 -43 16 -65 6 -22 11 -65 11 -95 0 -30 -5 -73 -11
-95 -6 -22 -13 -51 -16 -65 -8 -35 -85 -149 -126 -187 -174 -158 -423 -168
-617 -24 -62 46 -122 130 -155 216 -24 63 -28 241 -6 295 40 100 59 130 120
191 82 82 148 116 276 143 43 8 100 5 159 -9z m-3148 -502 c8 -74 -1 -228 -15
-265 -4 -12 -14 -41 -21 -63 -62 -200 -218 -363 -390 -412 -50 -14 -126 -17
-133 -5 -9 14 22 134 39 153 10 11 30 19 49 19 21 0 51 14 89 40 141 99 200
218 214 434 l7 99 65 33 c36 19 70 34 77 34 7 0 14 -26 19 -67z"/>
<path d="M7167 2777 c-9 -14 -25 -28 -35 -31 -13 -4 -27 -32 -45 -87 -39 -118
-223 -576 -255 -633 -22 -40 -38 -55 -82 -77 -67 -33 -72 -54 -12 -54 236 3
302 6 302 15 0 6 -25 21 -55 34 -40 18 -56 31 -61 50 -6 25 27 156 53 209 l14
27 139 0 c161 0 147 9 179 -117 30 -117 28 -140 -11 -158 -18 -7 -46 -16 -61
-20 -16 -3 -27 -11 -24 -18 4 -14 376 -31 390 -17 11 10 -3 19 -67 45 -27 11
-58 32 -70 48 -11 15 -79 203 -151 418 -129 385 -131 391 -148 366z m32 -320
c28 -87 51 -165 51 -173 0 -11 -23 -14 -120 -14 -98 0 -120 3 -120 14 0 27
123 347 131 339 4 -4 30 -79 58 -166z"/>
<path d="M910 2763 c-74 -2 -141 -6 -149 -8 -21 -8 2 -28 47 -40 69 -19 72
-35 72 -395 0 -231 -4 -322 -13 -340 -9 -18 -29 -31 -70 -44 -97 -31 -69 -41
124 -41 96 -1 180 1 186 3 21 7 5 21 -36 32 -20 5 -48 21 -62 36 l-24 26 -3
336 c-2 185 -1 346 2 358 13 50 128 57 209 12 80 -44 110 -127 89 -246 -21
-125 -69 -175 -170 -176 -62 -1 -80 -19 -37 -36 33 -12 129 1 180 26 83 39
145 150 145 260 0 70 -17 110 -67 155 -80 72 -165 89 -423 82z"/>
<path d="M17260 2752 c-84 -28 -132 -56 -193 -112 -144 -131 -189 -341 -108
-505 95 -192 318 -292 536 -240 59 14 215 79 215 90 0 3 -7 17 -16 31 -14 20
-15 39 -10 95 8 84 17 104 57 124 60 32 31 40 -137 40 -141 0 -159 -2 -162
-17 -2 -13 6 -18 35 -23 67 -12 103 -26 114 -46 15 -29 1 -151 -22 -189 -46
-75 -205 -93 -317 -36 -122 62 -191 176 -200 327 -14 249 132 429 347 429 119
0 195 -39 237 -122 14 -27 30 -47 37 -45 15 5 13 155 -2 170 -18 18 -128 38
-241 43 -94 3 -125 1 -170 -14z"/>
<path d="M12106 2751 c-8 -13 14 -28 54 -36 19 -4 41 -12 48 -17 9 -8 12 -93
12 -363 0 -398 5 -374 -82 -399 -24 -7 -43 -19 -43 -25 0 -16 662 -24 671 -9
6 10 19 64 40 176 10 47 -18 42 -41 -8 -10 -22 -37 -58 -60 -79 -39 -36 -48
-40 -119 -46 -42 -4 -110 -4 -151 0 -61 5 -78 11 -90 28 -13 18 -15 75 -15
357 0 184 4 341 9 348 5 8 39 22 76 33 75 21 80 23 70 38 -8 13 -371 15 -379
2z"/>
<path d="M4567 2692 c-22 -25 -21 -75 1 -95 41 -37 112 -6 112 48 0 55 -77 87
-113 47z"/>
<path d="M8666 2688 c-22 -31 -20 -64 4 -88 41 -41 110 -13 110 44 0 41 -26
66 -68 66 -21 0 -36 -7 -46 -22z"/>
<path d="M15117 2692 c-37 -41 -6 -112 48 -112 55 0 87 77 47 113 -25 22 -75
21 -95 -1z"/>
<path d="M11096 2676 c-51 -19 -94 -62 -108 -108 -14 -49 8 -110 57 -158 19
-19 35 -37 35 -41 0 -4 -25 -21 -56 -39 -154 -87 -220 -225 -161 -340 32 -64
96 -101 185 -108 93 -6 140 16 228 106 l68 71 42 -63 c56 -84 93 -109 163
-114 47 -3 65 1 110 25 89 46 99 88 15 59 -62 -21 -89 -20 -140 4 -50 25 -139
132 -127 154 4 8 62 71 129 139 83 87 129 128 150 132 46 10 74 24 74 36 0 8
-15 9 -52 3 -29 -5 -88 -8 -130 -6 -82 3 -94 -5 -53 -32 14 -9 25 -22 25 -30
0 -14 -81 -130 -133 -190 l-34 -38 -23 33 c-13 19 -60 71 -104 116 -44 46 -78
84 -75 86 2 2 23 11 47 22 24 10 57 34 74 53 27 32 30 40 26 89 -7 86 -59 140
-143 148 -31 3 -65 0 -89 -9z m126 -57 c45 -59 23 -183 -36 -211 -31 -14 -53
3 -98 71 -58 91 -23 175 70 169 35 -2 49 -9 64 -29z m79 -496 l29 -41 -40 -36
c-61 -54 -113 -77 -180 -77 -127 -1 -187 77 -160 207 14 65 56 118 115 146
l40 18 83 -87 c46 -49 97 -107 113 -130z"/>
<path d="M4146 2455 c-72 -68 -79 -91 -29 -97 l28 -3 5 -202 5 -203 32 -31
c42 -43 111 -51 172 -20 79 41 110 96 36 65 -55 -23 -93 -18 -126 15 l-29 30
2 173 3 173 90 5 90 5 0 30 0 30 -94 3 -94 3 6 44 c7 63 -12 59 -97 -20z"/>
<path d="M8280 2477 c-25 -23 -58 -52 -74 -65 -22 -18 -25 -26 -16 -37 6 -8
21 -15 33 -17 22 -3 22 -7 27 -198 4 -168 8 -200 23 -224 25 -37 80 -59 134
-53 64 7 152 71 129 94 -3 3 -11 1 -19 -5 -21 -17 -89 -25 -120 -13 -48 19
-58 61 -55 239 l3 157 92 3 c90 3 93 4 99 28 4 14 3 29 -2 34 -5 5 -50 10 -99
12 l-90 3 3 43 c4 54 -9 54 -68 -1z"/>
<path d="M4616 2443 c-22 -14 -58 -32 -80 -38 -47 -14 -57 -31 -24 -44 49 -19
53 -33 56 -217 3 -164 3 -173 -17 -193 -12 -12 -30 -21 -40 -21 -20 0 -37 -17
-28 -26 3 -3 61 -6 129 -6 133 -1 152 7 88 40 l-35 17 0 258 c0 141 -2 257 -5
257 -3 0 -23 -12 -44 -27z"/>
<path d="M8727 2449 c-15 -12 -49 -29 -74 -39 -56 -21 -64 -35 -29 -51 41 -19
47 -51 44 -234 l-3 -170 -34 -17 c-43 -22 -60 -38 -40 -39 56 -3 252 0 256 5
9 9 -8 26 -28 26 -10 0 -29 10 -40 21 -21 21 -22 26 -17 270 3 137 3 249 -1
249 -3 0 -19 -10 -34 -21z"/>
<path d="M15177 2449 c-15 -12 -49 -29 -74 -39 -56 -21 -64 -35 -29 -51 41
-19 47 -51 44 -234 l-3 -170 -35 -17 c-19 -10 -39 -20 -45 -22 -5 -2 -7 -7 -3
-11 8 -9 256 -10 265 -2 9 10 -8 27 -25 27 -10 0 -28 7 -41 17 l-24 16 5 254
c3 139 3 253 -1 253 -3 0 -19 -10 -34 -21z"/>
<path d="M2008 2421 c-60 -32 -87 -61 -58 -61 6 0 19 -9 30 -20 19 -19 20 -33
20 -200 l0 -180 -32 -20 c-18 -11 -37 -22 -43 -24 -30 -11 18 -18 131 -18 142
-1 163 8 90 41 l-46 20 0 174 c0 167 1 174 23 194 33 30 59 35 105 19 37 -13
43 -13 61 2 48 42 28 92 -35 92 -41 0 -88 -22 -126 -58 l-28 -26 0 52 c0 36
-4 52 -12 51 -7 -1 -43 -18 -80 -38z"/>
<path d="M3471 2430 c-80 -29 -94 -42 -62 -60 49 -26 51 -44 51 -428 l0 -358
-47 -23 c-26 -12 -42 -26 -36 -29 6 -4 71 -7 144 -7 147 0 174 12 90 40 -27 9
-52 23 -55 31 -8 20 -7 272 0 301 6 22 7 22 38 5 48 -25 159 -22 214 6 138 73
211 246 163 386 -15 45 -72 111 -112 132 -60 31 -181 12 -261 -42 l-38 -24 0
50 c0 27 -3 49 -7 49 -5 -1 -42 -14 -82 -29z m308 -65 c39 -20 78 -69 91 -113
18 -66 12 -162 -14 -217 -27 -58 -47 -78 -100 -100 -46 -20 -85 -13 -127 22
-66 56 -86 138 -72 293 l8 85 45 23 c52 26 127 29 169 7z"/>
<path d="M5590 2436 c-19 -12 -52 -29 -72 -35 -21 -7 -38 -16 -38 -20 0 -3 14
-18 30 -33 l30 -26 0 -185 0 -185 -40 -16 c-38 -15 -54 -35 -27 -37 65 -3 240
0 244 4 10 11 -8 26 -38 32 -19 4 -34 16 -40 32 -12 31 -12 314 0 346 6 15 27
32 59 45 87 38 157 26 192 -30 18 -30 20 -48 18 -203 l-3 -170 -34 -17 c-19
-9 -39 -22 -44 -27 -13 -13 -19 -12 133 -12 137 0 130 -1 130 10 0 5 -17 16
-39 24 -21 9 -41 23 -45 32 -3 9 -6 92 -6 183 0 191 -12 235 -72 272 -63 38
-172 21 -259 -41 l-29 -20 0 50 c0 28 -3 51 -8 51 -4 0 -23 -11 -42 -24z"/>
<path d="M9690 2435 c-19 -14 -49 -30 -67 -36 -37 -12 -43 -34 -13 -44 30 -10
40 -66 40 -232 0 -140 -2 -155 -20 -173 -11 -11 -29 -20 -39 -20 -20 0 -37
-17 -28 -26 3 -3 61 -6 129 -6 133 -1 152 7 88 40 l-35 17 -3 179 c-2 133 1
182 10 194 22 26 91 52 142 52 41 0 53 -5 82 -34 l34 -34 0 -179 0 -180 -40
-18 c-38 -17 -52 -34 -30 -36 6 0 60 0 120 0 138 0 130 -1 130 11 0 6 -18 17
-39 26 l-39 15 -4 187 c-4 205 -9 226 -68 276 -27 22 -41 26 -93 26 -65 0
-148 -30 -176 -63 -24 -30 -33 -19 -26 33 8 59 -1 63 -55 25z"/>
<path d="M13988 2421 c-60 -32 -87 -61 -58 -61 6 0 19 -9 30 -20 19 -19 20
-33 20 -200 l0 -180 -32 -20 c-18 -11 -37 -22 -43 -24 -30 -11 18 -18 131 -18
142 -1 163 8 90 41 l-46 20 0 169 c0 154 2 172 20 195 26 33 59 40 107 23 46
-16 69 -7 84 30 32 86 -96 86 -188 1 l-23 -20 0 51 c0 36 -4 52 -12 51 -7 -1
-43 -18 -80 -38z"/>
<path d="M14470 2436 c-19 -12 -52 -29 -72 -35 -21 -7 -38 -16 -38 -20 0 -4
14 -17 30 -30 l30 -22 -2 -191 -3 -191 -34 -12 c-19 -6 -37 -17 -39 -23 -4
-14 -13 -13 128 -13 141 0 132 -1 128 13 -2 6 -20 17 -39 23 l-34 12 -3 191
-2 190 55 27 c72 36 143 32 183 -9 l27 -26 0 -183 0 -182 -34 -17 c-19 -9 -39
-22 -44 -27 -13 -13 -19 -12 133 -12 137 0 130 -1 130 10 0 5 -17 16 -39 24
-21 9 -41 23 -45 32 -3 9 -6 92 -6 183 0 187 -11 230 -68 270 -58 42 -174 25
-264 -39 l-30 -22 3 52 c4 58 -1 61 -51 27z"/>
<path d="M15490 2436 c-19 -12 -52 -29 -72 -35 -21 -7 -38 -15 -38 -18 0 -3
14 -18 30 -33 l30 -28 0 -185 0 -185 -40 -16 c-38 -15 -54 -35 -27 -37 65 -3
240 0 244 4 10 11 -8 26 -38 32 -19 4 -34 16 -40 32 -12 31 -12 314 0 346 6
15 27 32 59 45 87 38 157 26 192 -30 18 -30 20 -48 18 -203 l-3 -170 -34 -17
c-19 -9 -39 -22 -44 -27 -13 -13 -19 -12 133 -12 137 0 130 -1 130 10 0 5 -17
16 -39 24 -21 9 -41 23 -45 32 -3 9 -6 92 -6 183 0 143 -3 173 -20 209 -46
103 -185 112 -312 22 l-30 -22 3 52 c4 58 -1 61 -51 27z"/>
<path d="M17955 2426 c-34 -18 -67 -35 -75 -38 -11 -4 -6 -14 20 -36 l35 -30
0 -183 0 -184 -37 -18 c-38 -18 -50 -36 -25 -38 67 -3 250 0 254 4 9 10 -7 25
-34 32 -60 14 -63 24 -63 187 0 170 10 207 58 227 30 13 42 11 103 -14 21 -8
59 30 59 60 0 30 -19 45 -56 45 -45 0 -75 -13 -118 -50 l-36 -32 0 51 c0 60
-3 61 -85 17z"/>
<path d="M19731 2430 c-80 -29 -94 -42 -62 -60 49 -26 51 -44 49 -427 l-3
-358 -43 -24 c-24 -13 -39 -26 -34 -30 6 -3 70 -6 143 -6 147 0 174 12 90 40
-27 9 -52 23 -55 31 -8 20 -8 288 0 308 5 14 9 14 37 -1 49 -26 160 -24 215 5
90 48 161 147 177 249 15 95 -34 206 -114 260 -61 42 -184 27 -273 -33 l-38
-24 0 50 c0 27 -3 49 -7 49 -5 -1 -42 -14 -82 -29z m308 -65 c66 -34 101 -104
101 -205 0 -109 -36 -179 -113 -218 -43 -22 -52 -24 -87 -13 -54 16 -106 79
-121 146 -8 36 -9 83 -3 156 l9 104 45 23 c52 26 127 29 169 7z"/>
<path d="M16222 2432 c-152 -54 -197 -213 -92 -324 22 -23 40 -44 40 -47 0 -3
-21 -21 -45 -39 -50 -38 -60 -58 -46 -95 10 -26 56 -57 86 -57 27 0 16 -17
-41 -60 -73 -57 -84 -75 -84 -136 0 -94 68 -144 206 -152 72 -4 89 -1 138 21
103 47 186 159 186 251 0 36 -6 50 -29 73 -36 36 -81 50 -205 63 -153 16 -202
46 -156 95 21 22 29 24 75 19 67 -8 113 7 159 52 50 49 67 87 81 179 l11 80
44 5 c37 4 46 9 48 28 3 21 0 22 -71 22 -41 0 -93 7 -116 15 -72 25 -131 27
-189 7z m118 -44 c41 -28 70 -81 70 -128 0 -97 -50 -170 -117 -170 -49 0 -80
22 -104 74 -38 83 -15 189 49 229 37 22 63 21 102 -5z m89 -564 c47 -18 61
-38 61 -84 0 -129 -155 -211 -280 -147 -91 45 -101 134 -26 215 l41 45 81 -6
c44 -3 99 -13 123 -23z"/>
<path d="M19478 2445 c-3 -3 -47 -11 -99 -18 -69 -9 -94 -16 -94 -27 0 -8 16
-17 39 -22 73 -15 76 -22 76 -190 l0 -149 -39 -41 c-35 -38 -43 -42 -100 -46
-70 -5 -101 9 -126 58 -13 25 -16 67 -15 228 l1 197 -54 -3 c-108 -6 -143 -28
-87 -57 17 -9 35 -27 40 -41 6 -14 10 -100 10 -191 0 -187 7 -210 72 -244 68
-35 178 -17 249 41 l39 31 0 -50 0 -49 73 23 c39 13 84 26 100 30 46 9 34 35
-17 35 -37 0 -46 4 -51 21 -4 12 -5 119 -4 239 3 202 1 239 -13 225z"/>
<path d="M1565 2421 c-54 -24 -120 -101 -141 -163 -22 -66 -15 -176 16 -241
54 -115 170 -163 293 -121 51 17 117 82 117 114 0 27 -6 25 -46 -10 -58 -51
-145 -53 -214 -5 -66 45 -118 173 -91 223 11 20 20 22 174 24 l162 3 3 37 c8
90 -67 158 -174 158 -35 0 -75 -8 -99 -19z m156 -42 c31 -22 45 -65 28 -85
-14 -17 -224 -20 -234 -4 -16 25 50 100 100 113 30 7 77 -3 106 -24z"/>
<path d="M2529 2412 c-135 -70 -198 -267 -130 -401 25 -49 89 -105 136 -121
105 -35 275 35 275 111 0 25 -7 24 -48 -8 -41 -31 -112 -41 -165 -24 -56 19
-113 88 -128 155 -30 136 39 272 137 269 23 -1 55 -14 90 -37 62 -41 74 -43
98 -17 27 29 16 53 -34 79 -66 33 -161 31 -231 -6z"/>
<path d="M3012 2410 c-67 -39 -119 -115 -131 -191 -15 -96 13 -211 67 -273 29
-33 113 -66 167 -66 54 0 138 33 167 66 22 25 39 72 29 79 -5 2 -15 -2 -22
-11 -21 -26 -86 -54 -124 -54 -43 0 -101 23 -134 53 -57 53 -96 205 -55 221 9
3 85 6 169 6 147 0 154 1 160 21 18 55 -28 139 -92 165 -18 8 -58 14 -90 14
-46 0 -69 -6 -111 -30z m141 -14 c46 -19 69 -49 65 -83 l-3 -28 -117 -3 c-111
-2 -118 -2 -118 17 0 40 80 109 128 111 7 0 27 -6 45 -14z"/>
<path d="M4995 2416 c-29 -13 -70 -45 -97 -75 -158 -176 -66 -438 162 -458
174 -16 313 113 314 292 1 75 -17 121 -69 183 -67 80 -208 106 -310 58z m189
-55 c58 -57 81 -121 81 -231 0 -77 -4 -101 -20 -129 -26 -44 -62 -70 -107 -77
-51 -9 -81 1 -123 38 -58 50 -78 100 -83 204 -5 98 5 145 40 189 29 37 54 45
121 42 49 -3 62 -8 91 -36z"/>
<path d="M7820 2419 c-99 -44 -160 -138 -168 -254 -8 -129 37 -217 135 -262
47 -22 65 -25 119 -20 93 7 184 67 184 122 0 20 -24 19 -41 -1 -26 -31 -71
-46 -125 -42 -74 6 -125 42 -159 113 -24 49 -27 64 -23 128 7 109 46 172 117
190 27 7 91 -18 141 -53 34 -24 64 -20 81 11 16 30 5 47 -43 69 -59 27 -158
26 -218 -1z"/>
<path d="M9093 2414 c-171 -84 -224 -306 -107 -442 57 -67 103 -87 204 -87 76
0 91 3 139 30 205 114 200 410 -9 504 -67 30 -161 28 -227 -5z m177 -38 c20
-13 49 -48 65 -77 24 -45 30 -69 33 -139 7 -142 -30 -220 -111 -235 -93 -18
-166 32 -206 140 -44 117 -14 281 59 321 42 22 120 18 160 -10z"/>
<path d="M13024 2424 c-100 -49 -158 -144 -158 -258 -1 -184 109 -301 265
-283 86 10 169 72 169 126 0 19 -3 18 -43 -10 -84 -59 -184 -46 -252 34 -42
49 -58 95 -53 157 l3 45 164 5 c187 6 194 8 173 78 -25 83 -82 122 -179 122
-32 0 -72 -7 -89 -16z m146 -43 c29 -21 46 -61 37 -85 -5 -13 -25 -16 -122
-16 -107 0 -115 1 -115 19 0 26 47 81 85 97 36 17 80 11 115 -15z"/>
<path d="M13534 2410 c-68 -33 -130 -92 -139 -132 -9 -34 9 -37 61 -12 29 14
34 21 34 50 0 27 6 36 30 49 42 22 83 19 108 -8 19 -20 22 -35 22 -100 0 -89
4 -84 -128 -138 -108 -43 -132 -65 -132 -120 0 -35 6 -47 40 -81 38 -38 43
-40 86 -35 26 2 66 18 95 35 l49 31 16 -23 c34 -52 107 -57 157 -10 31 29 37
61 10 49 -39 -17 -70 -17 -87 1 -16 15 -17 38 -14 216 l3 199 -33 30 c-44 39
-98 39 -178 -1z m116 -348 c0 -69 -16 -96 -66 -112 -32 -11 -39 -10 -63 7 -32
25 -39 68 -14 95 22 24 101 67 126 68 14 0 17 -9 17 -58z"/>
<path d="M18484 2416 c-61 -28 -115 -82 -146 -145 -30 -60 -33 -198 -5 -248
43 -81 122 -132 216 -140 175 -16 315 114 315 292 0 75 -18 123 -69 183 -67
80 -208 106 -311 58z m167 -39 c76 -51 115 -155 105 -276 -9 -112 -51 -167
-135 -178 -80 -11 -151 44 -187 144 -18 53 -18 194 1 240 30 71 60 91 136 92
32 1 56 -6 80 -22z"/>
<path d="M6197 2032 c-32 -35 -11 -92 34 -92 30 0 59 -36 59 -72 0 -60 -46
-109 -122 -132 -10 -3 -18 -10 -18 -16 0 -16 48 -12 88 9 154 79 163 321 11
321 -22 0 -42 -7 -52 -18z"/>
<path d="M10300 2030 c-11 -11 -20 -26 -20 -33 0 -24 29 -54 59 -60 98 -20 60
-159 -54 -197 -43 -14 -46 -30 -5 -30 40 0 77 20 116 62 47 49 64 90 64 152 0
48 -4 60 -31 91 -26 29 -38 35 -70 35 -26 0 -46 -7 -59 -20z"/>
</g>
</svg>
